<svg xmlns="http://www.w3.org/2000/svg" viewBox="0 0 24 24"><path fill="#fff" d="M19.5 5.34A17.2 17.2 0 0 0 15.3 4l-.52 1.06a16 16 0 0 0-5.55 0L8.7 4a17.4 17.4 0 0 0-4.2 1.35C1.84 9.3 1.12 13.15 1.48 16.94a17 17 0 0 0 5.15 2.6l1.24-1.7a11 11 0 0 1-1.95-.94l.48-.37c3.75 1.74 7.83 1.74 11.54 0l.5.37c-.63.38-1.29.7-1.97.94l1.24 1.7a17 17 0 0 0 5.15-2.6c.43-4.4-.74-8.21-3.36-11.6ZM8.72 14.65c-1.13 0-2.05-1.04-2.05-2.31s.9-2.32 2.05-2.32 2.07 1.05 2.05 2.32c0 1.27-.9 2.31-2.05 2.31Zm6.56 0c-1.13 0-2.05-1.04-2.05-2.31s.9-2.32 2.05-2.32 2.07 1.05 2.05 2.32c0 1.27-.9 2.31-2.05 2.31Z"/></svg>
